<svg width="56" height="56" viewBox="0 0 56 56" fill="none" xmlns="http://www.w3.org/2000/svg">
<path d="M51 20.3333V15.8C51 11.3196 51 9.07937 50.1281 7.36808C49.3611 5.86278 48.1372 4.63893 46.6319 3.87195C44.9206 3 42.6804 3 38.2 3H15.8C11.3196 3 9.07937 3 7.36808 3.87195C5.86278 4.63893 4.63893 5.86278 3.87195 7.36808C3 9.07937 3 11.3196 3 15.8V38.2C3 42.6804 3 44.9206 3.87195 46.6319C4.63893 48.1372 5.86278 49.3611 7.36808 50.128C9.07937 51 11.3196 51 15.8 51H20.3333M41.3632 42.2302L36.8344 50.6407C36.0941 52.0155 35.724 52.7029 35.2729 52.8823C34.8812 53.038 34.439 52.9994 34.0802 52.7781C33.6671 52.5233 33.4217 51.7821 32.9309 50.2999L25.6677 28.3635C25.2379 27.0655 25.0231 26.4164 25.1776 25.9842C25.312 25.6081 25.6081 25.312 25.9842 25.1776C26.4164 25.0231 27.0655 25.238 28.3635 25.6677L50.2998 32.9309C51.7821 33.4217 52.5232 33.6671 52.7781 34.0803C52.9993 34.4391 53.038 34.8813 52.8822 35.273C52.7028 35.7241 52.0154 36.0942 50.6407 36.8345L42.2302 41.3632C42.0207 41.476 41.9159 41.5324 41.8242 41.6049C41.7428 41.6692 41.6692 41.7428 41.6049 41.8242C41.5324 41.9159 41.476 42.0207 41.3632 42.2302Z" stroke="url(#paint0_linear_326_1397)" stroke-width="5" stroke-linecap="round" stroke-linejoin="round"/>
<defs>
<linearGradient id="paint0_linear_326_1397" x1="3" y1="3" x2="52.9767" y2="52.9766" gradientUnits="userSpaceOnUse">
<stop stop-color="#662D8B"/>
<stop offset="1" stop-color="#EC1E79"/>
</linearGradient>
</defs>
</svg>
