<svg width="44" height="54" viewBox="0 0 44 54" fill="none" xmlns="http://www.w3.org/2000/svg">
<path d="M3.3335 8.30569C3.3335 5.71592 3.3335 4.42104 3.87347 3.70725C4.34388 3.08541 5.06289 2.70061 5.84122 2.65414C6.73466 2.60079 7.81207 3.31906 9.96688 4.75561L38.0084 23.4499C39.7889 24.6369 40.6791 25.2304 40.9893 25.9785C41.2606 26.6325 41.2606 27.3675 40.9893 28.0215C40.6791 28.7696 39.7889 29.3631 38.0084 30.5501L9.96688 49.2444C7.81207 50.681 6.73466 51.3992 5.84122 51.3459C5.06289 51.2994 4.34388 50.9146 3.87347 50.2928C3.3335 49.579 3.3335 48.2841 3.3335 45.6943V8.30569Z" stroke="url(#paint0_linear_326_1400)" stroke-width="5" stroke-linecap="round" stroke-linejoin="round"/>
<defs>
<linearGradient id="paint0_linear_326_1400" x1="3.3335" y1="2.65137" x2="50.5274" y2="39.3418" gradientUnits="userSpaceOnUse">
<stop stop-color="#662D8B"/>
<stop offset="1" stop-color="#EC1E79"/>
</linearGradient>
</defs>
</svg>
