<svg width="57" height="57" viewBox="0 0 57 57" fill="none" xmlns="http://www.w3.org/2000/svg">
<path d="M51.9999 53H30.6666M2.6665 54.3334L17.4646 48.6418C18.4111 48.2778 18.8843 48.0958 19.3271 47.8581C19.7204 47.647 20.0953 47.4033 20.4479 47.1297C20.845 46.8216 21.2035 46.463 21.9206 45.746L51.9999 15.6667C54.9454 12.7212 54.9454 7.94555 51.9999 5.00003C49.0544 2.05452 44.2788 2.05451 41.3332 5.00003L11.2539 35.0793C10.5368 35.7964 10.1783 36.1549 9.87022 36.5519C9.59656 36.9046 9.35291 37.2795 9.1418 37.6728C8.90412 38.1156 8.7221 38.5888 8.35806 39.5353L2.6665 54.3334ZM2.6665 54.3334L8.15483 40.0639C8.54756 39.0428 8.74393 38.5323 9.08074 38.2984C9.37509 38.094 9.73931 38.0167 10.0913 38.0839C10.4941 38.1609 10.8809 38.5477 11.6545 39.3213L17.6787 45.3455C18.4523 46.1191 18.8391 46.5059 18.916 46.9087C18.9832 47.2606 18.9059 47.6249 18.7016 47.9192C18.4677 48.256 17.9571 48.4524 16.936 48.8451L2.6665 54.3334Z" stroke="url(#paint0_linear_326_1398)" stroke-width="5" stroke-linecap="round" stroke-linejoin="round"/>
<defs>
<linearGradient id="paint0_linear_326_1398" x1="2.6665" y1="2.79089" x2="54.209" y2="54.3334" gradientUnits="userSpaceOnUse">
<stop stop-color="#662D8B"/>
<stop offset="1" stop-color="#EC1E79"/>
</linearGradient>
</defs>
</svg>
