<svg width="52" height="46" viewBox="0 0 52 46" fill="none" xmlns="http://www.w3.org/2000/svg">
<path d="M28.1305 34.6667H44.8696M28.1305 34.6667L23.6667 44M28.1305 34.6667L34.8161 20.6877C35.3548 19.5613 35.6242 18.9981 35.9927 18.8201C36.3133 18.6653 36.6869 18.6653 37.0074 18.8201C37.376 18.9981 37.6453 19.5613 38.1841 20.6877L44.8696 34.6667M44.8696 34.6667L49.3334 44M2.66675 6.66667H16.6667M16.6667 6.66667H24.8334M16.6667 6.66667V2M24.8334 6.66667H30.6667M24.8334 6.66667C23.6758 13.567 20.9894 19.8178 17.053 25.0637M21.3334 27.6667C19.9042 27.0246 18.4463 26.1315 17.053 25.0637M17.053 25.0637C13.8971 22.6448 11.0732 19.3288 9.66675 16M17.053 25.0637C13.3088 30.0535 8.43343 34.1342 2.66675 37" stroke="#E9ECEF" stroke-width="4" stroke-linecap="round" stroke-linejoin="round"/>
</svg>
