<svg width="52" height="46" viewBox="0 0 52 46" fill="none" xmlns="http://www.w3.org/2000/svg">
<path d="M16.6667 44H35.3334M26.0001 34.6667V44M13.8667 34.6667H38.1334C42.0538 34.6667 44.014 34.6667 45.5113 33.9037C46.8285 33.2326 47.8993 32.1617 48.5705 30.8446C49.3334 29.3472 49.3334 27.387 49.3334 23.4667V13.2C49.3334 9.27963 49.3334 7.31945 48.5705 5.82207C47.8993 4.50493 46.8285 3.43407 45.5113 2.76295C44.014 2 42.0538 2 38.1334 2H13.8667C9.94638 2 7.9862 2 6.48881 2.76295C5.17168 3.43407 4.10082 4.50493 3.4297 5.82207C2.66675 7.31945 2.66675 9.27963 2.66675 13.2V23.4667C2.66675 27.387 2.66675 29.3472 3.4297 30.8446C4.10082 32.1617 5.17168 33.2326 6.48881 33.9037C7.9862 34.6667 9.94638 34.6667 13.8667 34.6667Z" stroke="black" stroke-width="4" stroke-linecap="round" stroke-linejoin="round"/>
</svg>
