<svg width="42" height="52" viewBox="0 0 42 52" fill="none" xmlns="http://www.w3.org/2000/svg">
<path d="M20.9999 40C31.3092 40 39.6666 31.6427 39.6666 21.3334C39.6666 11.024 31.3092 2.66669 20.9999 2.66669C10.6906 2.66669 2.33325 11.024 2.33325 21.3334C2.33325 31.6427 10.6906 40 20.9999 40ZM20.9999 40V49.3334M20.9999 49.3334H9.33325M20.9999 49.3334H32.6666M27.9999 21.3334C27.9999 25.1993 24.8659 28.3334 20.9999 28.3334C17.1339 28.3334 13.9999 25.1993 13.9999 21.3334C13.9999 17.4674 17.1339 14.3334 20.9999 14.3334C24.8659 14.3334 27.9999 17.4674 27.9999 21.3334Z" stroke="black" stroke-width="4" stroke-linecap="round" stroke-linejoin="round"/>
</svg>
