<svg width="54" height="53" viewBox="0 0 54 53" fill="none" xmlns="http://www.w3.org/2000/svg">
<path d="M19 41.9999V10.9477C19 9.66359 19 9.02154 19.2336 8.5008C19.4395 8.04177 19.7711 7.65035 20.19 7.37177C20.6653 7.05573 21.2986 6.95017 22.5652 6.73907L46.0319 2.82796C47.7412 2.54308 48.5958 2.40065 49.2618 2.64804C49.8463 2.86513 50.3363 3.28017 50.6465 3.82101C51 4.43733 51 5.30374 51 7.03657V36.6666M19 41.9999C19 46.4182 15.4183 49.9999 11 49.9999C6.58172 49.9999 3 46.4182 3 41.9999C3 37.5817 6.58172 33.9999 11 33.9999C15.4183 33.9999 19 37.5817 19 41.9999ZM51 36.6666C51 41.0849 47.4183 44.6666 43 44.6666C38.5817 44.6666 35 41.0849 35 36.6666C35 32.2483 38.5817 28.6666 43 28.6666C47.4183 28.6666 51 32.2483 51 36.6666Z" stroke="url(#paint0_linear_326_1399)" stroke-width="5" stroke-linecap="round" stroke-linejoin="round"/>
<defs>
<linearGradient id="paint0_linear_326_1399" x1="3" y1="2.52087" x2="50.4762" y2="50.518" gradientUnits="userSpaceOnUse">
<stop stop-color="#662D8B"/>
<stop offset="1" stop-color="#EC1E79"/>
</linearGradient>
</defs>
</svg>
