<svg width="38" height="48" viewBox="0 0 38 48" fill="none" xmlns="http://www.w3.org/2000/svg">
<path d="M2.66675 7.64236C2.66675 5.37631 2.66675 4.24329 3.13922 3.61872C3.55083 3.07461 4.17997 2.73791 4.86101 2.69725C5.64276 2.65057 6.5855 3.27906 8.47096 4.53603L33.0073 20.8936C34.5652 21.9322 35.3442 22.4515 35.6156 23.1061C35.8529 23.6783 35.8529 24.3215 35.6156 24.8937C35.3442 25.5483 34.5652 26.0676 33.0073 27.1062L8.47096 43.4638C6.5855 44.7207 5.64276 45.3492 4.86101 45.3025C4.17997 45.2619 3.55083 44.9252 3.13922 44.3811C2.66675 43.7565 2.66675 42.6235 2.66675 40.3574V7.64236Z" stroke="#E9ECEF" stroke-width="4" stroke-linecap="round" stroke-linejoin="round"/>
</svg>
