<svg width="52" height="49" viewBox="0 0 52 49" fill="none" xmlns="http://www.w3.org/2000/svg">
<path d="M49.3332 24.8334V32.0667C49.3332 37.2938 49.3332 39.9074 48.3159 41.9039C47.4211 43.6601 45.9933 45.0879 44.2371 45.9827C42.2406 47 39.627 47 34.3998 47H17.5998C12.3727 47 9.7591 47 7.76259 45.9827C6.00641 45.0879 4.57859 43.6601 3.68378 41.9039C2.6665 39.9074 2.6665 37.2938 2.6665 32.0667V19.9334C2.6665 14.7062 2.6665 12.0926 3.68378 10.0961C4.57859 8.33993 6.00641 6.91211 7.76259 6.01729C9.7591 5.00002 12.3727 5.00002 17.5998 5.00002H27.1665M42.3332 16.6667V2.66669M35.3332 9.66669H49.3332M35.3332 26C35.3332 31.1547 31.1545 35.3334 25.9998 35.3334C20.8452 35.3334 16.6665 31.1547 16.6665 26C16.6665 20.8454 20.8452 16.6667 25.9998 16.6667C31.1545 16.6667 35.3332 20.8454 35.3332 26Z" stroke="black" stroke-width="4" stroke-linecap="round" stroke-linejoin="round"/>
</svg>
