<svg width="156" height="40" viewBox="0 0 156 40" fill="none" xmlns="http://www.w3.org/2000/svg">
<g clip-path="url(#clip0_427_65852)">
<path d="M54.9194 13.9771C56.3044 13.9771 57.539 14.5552 58.6222 15.7124C59.7055 16.8696 60.2471 18.3244 60.2471 20.0785C60.2471 21.8326 59.7055 23.2992 58.6222 24.4777C57.539 25.657 56.2713 26.2462 54.8199 26.2462C53.3685 26.2462 52.2003 25.6638 51.316 24.4998V30.3581H48V14.176H51.316V15.5024C52.3329 14.4855 53.5343 13.9771 54.9194 13.9771ZM51.2718 20.1337C51.2718 21.0988 51.5405 21.8878 52.0787 22.4992C52.6169 23.1113 53.269 23.4166 54.0351 23.4166C54.8012 23.4166 55.472 23.1113 56.0468 22.4992C56.6216 21.8878 56.909 21.103 56.909 20.1448C56.909 19.1866 56.6292 18.3839 56.0689 17.7352C55.5086 17.0864 54.8386 16.7625 54.0572 16.7625C53.2758 16.7625 52.6169 17.083 52.0787 17.7241C51.5405 18.3652 51.2718 19.1687 51.2718 20.1337V20.1337Z" fill="#212529"/>
<path d="M68.7581 17.0941C67.771 17.0941 67.0338 17.4444 66.5475 18.1442C66.0611 18.8439 65.8179 19.769 65.8179 20.9185V26.0694H62.502V14.176H65.8179V15.7456C66.2456 15.2592 66.7796 14.8469 67.4207 14.5076C68.0618 14.1692 68.7139 13.9924 69.3771 13.9771L69.3992 17.0941H68.7581V17.0941Z" fill="#212529"/>
<path d="M83.0836 20.1227C83.0836 21.847 82.4867 23.2992 81.2929 24.4777C80.0992 25.657 78.5993 26.2462 76.7942 26.2462C74.9891 26.2462 73.4893 25.657 72.2955 24.4777C71.1018 23.2984 70.5049 21.847 70.5049 20.1227C70.5049 18.3984 71.1018 16.9436 72.2955 15.7566C73.4893 14.5705 74.9891 13.9771 76.7942 13.9771C78.5993 13.9771 80.0992 14.5705 81.2929 15.7566C82.4867 16.9436 83.0836 18.3984 83.0836 20.1227V20.1227ZM73.843 20.1227C73.843 21.0954 74.1193 21.8878 74.672 22.4992C75.2246 23.1113 75.9321 23.4166 76.7942 23.4166C77.6564 23.4166 78.3638 23.1113 78.9165 22.4992C79.4691 21.8878 79.7455 21.0954 79.7455 20.1227C79.7455 19.15 79.4691 18.3542 78.9165 17.7352C78.3638 17.1162 77.6564 16.8067 76.7942 16.8067C75.9321 16.8067 75.2246 17.1162 74.672 17.7352C74.1193 18.3542 73.843 19.15 73.843 20.1227Z" fill="#212529"/>
<path d="M94.1583 22.3665C94.1583 23.5382 93.7272 24.4777 92.8651 25.1851C92.0029 25.8925 90.9086 26.2462 89.5822 26.2462C88.698 26.2462 87.7763 26.0872 86.8189 25.7709C85.8607 25.4538 84.9985 24.9861 84.2324 24.3672L85.6915 22.2891C86.9294 23.2474 88.2482 23.7261 89.6485 23.7261C90.0762 23.7261 90.4146 23.641 90.6654 23.4718C90.9163 23.3026 91.0413 23.0773 91.0413 22.7976C91.0413 22.5179 90.8678 22.2594 90.5218 22.0239C90.1749 21.7883 89.6741 21.5673 89.0185 21.3607C88.363 21.1541 87.8613 20.9772 87.5153 20.8301C87.1692 20.683 86.7747 20.4687 86.3326 20.189C85.4338 19.6295 84.984 18.8005 84.984 17.702C84.984 16.6035 85.4262 15.709 86.3104 15.0161C87.1947 14.3231 88.3366 13.9771 89.737 13.9771C91.1373 13.9771 92.5369 14.4489 93.9372 15.3919L92.6993 17.6025C91.6679 16.8951 90.6399 16.5414 89.6154 16.5414C88.5908 16.5414 88.079 16.8212 88.079 17.3815C88.079 17.691 88.2414 17.9341 88.5653 18.111C88.8893 18.2878 89.4275 18.4945 90.1791 18.73C90.9307 18.9663 91.4647 19.1466 91.7818 19.2716C92.099 19.3966 92.4782 19.5921 92.9203 19.8574C93.7459 20.3582 94.1583 21.1949 94.1583 22.3665V22.3665Z" fill="#212529"/>
<path d="M99.7945 19.6585V26.0694H96.4785V9.66626H99.7945V15.5024C100.797 14.4855 101.92 13.9771 103.166 13.9771C104.411 13.9771 105.461 14.4192 106.316 15.3035C107.17 16.1877 107.598 17.367 107.598 18.8405V26.0694H104.282V19.57C104.282 17.7428 103.611 16.8288 102.27 16.8288C101.607 16.8288 101.029 17.0686 100.535 17.5473C100.041 18.026 99.7945 18.73 99.7945 19.6585V19.6585Z" fill="#212529"/>
<path d="M122.278 20.1227C122.278 21.847 121.681 23.2992 120.487 24.4777C119.293 25.657 117.794 26.2462 115.989 26.2462C114.183 26.2462 112.684 25.657 111.49 24.4777C110.296 23.2984 109.699 21.847 109.699 20.1227C109.699 18.3984 110.296 16.9436 111.49 15.7566C112.684 14.5705 114.183 13.9771 115.989 13.9771C117.794 13.9771 119.293 14.5705 120.487 15.7566C121.681 16.9436 122.278 18.3984 122.278 20.1227V20.1227ZM113.037 20.1227C113.037 21.0954 113.314 21.8878 113.866 22.4992C114.419 23.1113 115.126 23.4166 115.989 23.4166C116.851 23.4166 117.558 23.1113 118.111 22.4992C118.663 21.8878 118.94 21.0954 118.94 20.1227C118.94 19.15 118.663 18.3542 118.111 17.7352C117.558 17.1162 116.851 16.8067 115.989 16.8067C115.126 16.8067 114.419 17.1162 113.866 17.7352C113.314 18.3542 113.037 19.15 113.037 20.1227Z" fill="#212529"/>
<path d="M130.766 17.0941C129.779 17.0941 129.042 17.4444 128.555 18.1442C128.069 18.8439 127.826 19.769 127.826 20.9185V26.0694H124.51V14.176H127.826V15.7456C128.253 15.2592 128.787 14.8469 129.428 14.5076C130.07 14.1692 130.722 13.9924 131.385 13.9771L131.407 17.0941H130.766V17.0941Z" fill="#212529"/>
<path d="M137.332 16.6129V21.9406C137.332 22.3972 137.451 22.7552 137.686 23.0128C137.922 23.2713 138.202 23.3997 138.526 23.3997C139.145 23.3997 139.668 23.1199 140.096 22.5596L141.334 24.8808C140.302 25.8238 139.215 26.2956 138.073 26.2956C136.931 26.2956 135.965 25.9198 135.177 25.1682C134.388 24.4166 133.994 23.392 133.994 22.0954V16.6129H132.602V14.2254H133.994V10.6663H137.332V14.2254H140.206V16.6129H137.332V16.6129Z" fill="#212529"/>
</g>
<path d="M149.09 23.3898V13.333H151.633V23.3898H149.09ZM145.333 19.6327V17.0901H155.39V19.6327H145.333Z" fill="#212529"/>
<path d="M33.2573 0H6.74271C3.01881 0 0 3.01881 0 6.74271V33.2573C0 36.9812 3.01881 40 6.74271 40H33.2573C36.9812 40 40 36.9812 40 33.2573V6.74271C40 3.01881 36.9812 0 33.2573 0Z" fill="url(#paint0_linear_427_65852)"/>
<path d="M12.9476 33.08C14.6122 33.08 15.9616 31.7306 15.9616 30.066C15.9616 28.4014 14.6122 27.052 12.9476 27.052C11.283 27.052 9.93359 28.4014 9.93359 30.066C9.93359 31.7306 11.283 33.08 12.9476 33.08Z" fill="url(#paint1_linear_427_65852)"/>
<path d="M19.9985 27.0515C25.5583 27.0515 30.0654 22.5444 30.0654 16.9846C30.0654 11.4248 25.5583 6.91772 19.9985 6.91772C14.4387 6.91772 9.93164 11.4248 9.93164 16.9846C9.93164 22.5444 14.4387 27.0515 19.9985 27.0515Z" fill="url(#paint2_linear_427_65852)"/>
<path d="M18.423 12.1127L24.1296 15.6054C25.159 16.237 25.159 17.7338 24.1296 18.3632L18.423 21.8559C17.3464 22.5144 15.9619 21.739 15.9619 20.4759V13.4904C15.9619 12.2273 17.3464 11.4519 18.423 12.1104V12.1127Z" fill="white"/>
<defs>
<linearGradient id="paint0_linear_427_65852" x1="0" y1="19.9989" x2="40" y2="19.9989" gradientUnits="userSpaceOnUse">
<stop stop-color="#262262"/>
<stop offset="1"/>
</linearGradient>
<linearGradient id="paint1_linear_427_65852" x1="9.93135" y1="30.066" x2="15.9616" y2="30.066" gradientUnits="userSpaceOnUse">
<stop stop-color="#662D8B"/>
<stop offset="1" stop-color="#EC1E79"/>
</linearGradient>
<linearGradient id="paint2_linear_427_65852" x1="-0.000371142" y1="16.9846" x2="30.0654" y2="16.9846" gradientUnits="userSpaceOnUse">
<stop stop-color="#662D8B"/>
<stop offset="1" stop-color="#EC1E79"/>
</linearGradient>
<clipPath id="clip0_427_65852">
<rect width="93.3333" height="20.6918" fill="white" transform="translate(48 9.66626)"/>
</clipPath>
</defs>
</svg>
